<?xml version="1.0" standalone="no"?>
<!DOCTYPE svg PUBLIC "-//W3C//DTD SVG 20010904//EN"
 "http://www.w3.org/TR/2001/REC-SVG-20010904/DTD/svg10.dtd">
<svg version="1.0" xmlns="http://www.w3.org/2000/svg"
 width="584.000000pt" height="584.000000pt" viewBox="0 0 584.000000 584.000000"
 preserveAspectRatio="xMidYMid meet">
<metadata>
Created by potrace 1.11, written by Peter Selinger 2001-2013
</metadata>
<g transform="translate(0.000000,584.000000) scale(0.100000,-0.100000)"
fill="#000000" stroke="none">
<path d="M2526 5348 c-61 -8 -91 -22 -139 -67 -52 -47 -70 -97 -74 -195 -1
-49 -4 -90 -6 -92 -1 -2 -248 -4 -547 -6 -537 -3 -546 -3 -586 -25 -56 -30
-101 -78 -121 -132 -17 -43 -18 -160 -18 -2101 l0 -2055 23 -45 c33 -63 66
-95 126 -121 l51 -22 1685 0 1685 0 53 23 c57 25 103 70 129 128 15 34 17 189
18 2084 1 2265 6 2108 -63 2182 -18 20 -51 46 -75 58 -42 23 -42 23 -589 26
l-548 3 -1 67 c0 37 -3 80 -5 96 -13 80 -90 164 -171 187 -51 14 -723 20 -827
7z m476 -260 c125 -61 131 -250 10 -317 -109 -59 -245 0 -268 117 -30 149 122
267 258 200z m-944 -467 c9 -1 12 -44 12 -181 0 -137 3 -180 13 -180 136 -3
1679 -1 1682 2 3 2 6 85 7 183 l3 178 328 1 c181 1 331 -2 334 -7 3 -5 6
-2255 3 -2898 l0 -87 -38 13 c-95 33 -202 -20 -202 -100 0 -40 23 -72 67 -90
40 -17 139 -20 148 -5 12 19 25 10 25 -18 l0 -28 -92 -2 c-97 -1 -194 -21
-235 -47 -29 -19 -32 -65 -5 -65 28 0 231 -67 282 -93 43 -22 45 -26 48 -70 2
-26 1 -47 -2 -47 -3 0 -28 14 -55 30 -88 55 -250 106 -397 126 -27 3 -58 8
-69 10 -24 5 -300 5 -335 0 -14 -2 -45 -7 -70 -11 -116 -17 -237 -51 -330 -93
-111 -50 -225 -147 -244 -209 -10 -30 -22 -29 -30 3 -4 14 -35 54 -70 88 -103
104 -290 182 -506 213 -68 10 -385 10 -460 1 -153 -19 -353 -87 -442 -150
l-28 -19 0 51 0 51 66 30 c60 27 183 69 244 83 39 9 50 20 44 43 -12 44 -154
83 -282 76 l-72 -3 0 36 c0 28 3 34 13 27 51 -40 169 -27 212 23 86 99 -57
208 -202 153 l-23 -9 0 1494 c0 821 2 1495 4 1497 3 3 603 3 654 0z"/>
<path d="M1874 3895 c-2 -5 -3 -359 -2 -785 l3 -775 1048 0 1047 -1 0 786 0
786 -1046 0 c-717 0 -1047 -3 -1050 -11z m933 -175 l52 0 1 -600 0 -600 -213
-1 c-369 -1 -581 2 -586 6 -2 3 -4 272 -4 598 l0 592 74 5 c41 3 198 4 349 3
151 -2 299 -3 327 -3z m972 -5 c7 -7 8 -1174 1 -1186 -6 -8 -145 -11 -572 -10
l-227 1 0 600 0 599 92 3 c145 5 699 -1 706 -7z"/>
<path d="M3176 3408 c-10 -5 -13 -39 -7 -81 1 -4 98 -7 216 -7 l215 1 0 45 c0
24 -3 44 -7 45 -39 5 -407 2 -417 -3z"/>
<path d="M3169 3218 c0 -7 -2 -24 -3 -36 -5 -45 8 -47 225 -47 l204 1 0 44 0
45 -212 3 c-167 2 -213 0 -214 -10z"/>
<path d="M3171 3035 c-3 -5 -6 -17 -5 -25 1 -8 2 -25 3 -37 1 -23 3 -23 149
-23 l147 0 2 40 c2 22 -3 42 -9 47 -19 11 -279 10 -287 -2z"/>
<path d="M1615 3722 l-51 -3 1 -862 0 -862 535 0 535 0 14 -30 c29 -61 35 -62
265 -63 177 0 215 2 238 16 25 15 41 40 43 67 0 7 187 10 540 10 l540 0 1 860
c1 473 0 862 -1 865 -2 3 -44 4 -94 2 l-91 -3 0 -755 0 -754 -1170 0 -1170 0
0 754 0 754 -42 3 c-24 2 -66 3 -93 1z"/>
<path d="M2040 1709 c-19 -6 -48 -23 -63 -37 -25 -23 -28 -33 -24 -69 3 -29
12 -49 28 -63 69 -57 194 -49 243 17 32 44 17 102 -37 137 -30 20 -104 27
-147 15z"/>
<path d="M3673 1700 c-144 -64 -43 -227 122 -196 41 8 105 67 105 97 0 89
-127 144 -227 99z"/>
<path d="M2632 1645 c-56 -17 -80 -40 -88 -81 -11 -57 32 -107 101 -120 105
-20 189 29 187 109 -1 38 -58 97 -94 97 -13 0 -32 2 -43 5 -11 2 -39 -2 -63
-10z"/>
<path d="M3095 1644 c-106 -36 -115 -148 -15 -188 88 -35 187 -9 215 57 38 91
-84 171 -200 131z"/>
<path d="M1980 1455 c-30 -7 -57 -14 -60 -14 -58 -12 -80 -36 -80 -88 l0 -44
48 8 c65 10 334 10 405 0 l57 -8 0 38 c0 21 -7 48 -15 59 -32 47 -241 75 -355
49z"/>
<path d="M3685 1465 c-5 -2 -37 -8 -70 -16 -102 -21 -125 -41 -123 -101 l1
-38 56 8 c73 9 319 9 397 -1 l61 -7 -2 37 c-4 69 -19 82 -113 104 -43 10 -183
19 -207 14z"/>
<path d="M2594 1394 c-102 -17 -139 -31 -154 -58 -16 -31 -8 -42 33 -50 160
-30 427 -164 427 -214 0 -11 8 -18 20 -18 12 0 20 7 20 17 0 50 239 171 413
210 58 12 67 23 47 58 -12 23 -46 37 -132 55 -82 17 -180 12 -275 -14 -65 -18
-77 -18 -115 -6 -94 31 -184 37 -284 20z"/>
</g>
</svg>
